<svg width="210" height="210" viewBox="0 0 210 210" fill="none" xmlns="http://www.w3.org/2000/svg">
<mask id="mask0_12_469" style="mask-type:alpha" maskUnits="userSpaceOnUse" x="0" y="0" width="210" height="210">
<rect width="210" height="210" fill="#D9D9D9"/>
</mask>
<g mask="url(#mask0_12_469)">
<path d="M48.3435 148.093C56.5102 141.968 65.406 137.265 75.031 133.984C84.656 130.703 94.6456 129.062 105 129.062C115.354 129.062 125.344 130.703 134.969 133.984C144.594 137.265 153.489 141.968 161.656 148.093C166.76 141.385 170.479 134.494 172.812 127.421C175.146 120.348 176.312 112.875 176.312 105C176.312 85.4578 169.312 68.687 155.312 54.687C141.312 40.687 124.541 33.687 105 33.687C85.4581 33.687 68.6873 40.687 54.6873 54.687C40.6873 68.687 33.6873 85.4578 33.6873 105C33.6873 112.875 34.8539 120.348 37.1873 127.421C39.5206 134.494 43.2393 141.385 48.3435 148.093ZM105.017 119C94.9431 119 86.4425 115.542 79.5154 108.626C72.5883 101.711 69.1248 93.2162 69.1248 83.142C69.1248 73.0679 72.5825 64.5672 79.4979 57.6401C86.4133 50.7131 94.9081 47.2495 104.982 47.2495C115.056 47.2495 123.557 50.7072 130.484 57.6226C137.411 64.538 140.875 73.0328 140.875 83.107C140.875 93.1812 137.417 101.682 130.502 108.609C123.586 115.536 115.091 119 105.017 119ZM105 199.5C92.1664 199.5 79.9864 197.001 68.4598 192.005C56.9345 187.007 46.9085 180.226 38.3816 171.661C29.8562 163.095 23.0779 153.052 18.0466 141.531C13.0154 130.01 10.4998 117.796 10.4998 104.89C10.4998 91.9839 13.0154 79.8068 18.0466 68.3589C23.0779 56.911 29.8562 46.9039 38.3816 38.3376C46.9085 29.7728 56.9345 22.9916 68.4598 17.9939C79.9864 12.9976 92.2029 10.4995 105.109 10.4995C118.015 10.4995 130.192 13.0151 141.64 18.0464C153.088 23.0776 163.078 29.8589 171.609 38.3901C180.14 46.9214 186.922 56.9051 191.953 68.3414C196.984 79.7776 199.5 91.997 199.5 105C199.5 117.833 197.002 130.013 192.005 141.54C187.008 153.065 180.226 163.091 171.662 171.618C163.095 180.143 153.094 186.921 141.658 191.953C130.222 196.984 118.002 199.5 105 199.5Z" fill="#1C1B1F"/>
</g>
</svg>
