<svg width="60" height="60" viewBox="0 0 60 60" fill="none" xmlns="http://www.w3.org/2000/svg">
<mask id="mask0_16_684" style="mask-type:alpha" maskUnits="userSpaceOnUse" x="0" y="0" width="60" height="60">
<rect width="60" height="60" fill="#D9D9D9"/>
</mask>
<g mask="url(#mask0_16_684)">
<path d="M26.75 43.4998H33.375V33.3748H43.5V26.7498H33.375V16.4998H26.75V26.7498H16.5V33.3748H26.75V43.4998ZM30 56.9998C26.265 56.9998 22.755 56.291 19.47 54.8735C16.185 53.456 13.3275 51.5323 10.8975 49.1023C8.4675 46.6723 6.54375 43.8148 5.12625 40.5298C3.70875 37.2448 3 33.7348 3 29.9998C3 26.2539 3.71 22.7339 5.13 19.4398C6.55 16.1452 8.47708 13.2795 10.9113 10.8429C13.3454 8.4058 16.2029 6.48934 19.4837 5.09351C22.7646 3.69767 26.27 2.99976 30 2.99976C33.7454 2.99976 37.265 3.69767 40.5588 5.09351C43.8529 6.48934 46.7188 8.40601 49.1562 10.8435C51.5938 13.281 53.5104 16.1473 54.9062 19.4423C56.3021 22.7377 57 26.2585 57 30.0048C57 33.7514 56.3021 37.2602 54.9062 40.531C53.5104 43.8018 51.594 46.6543 49.1569 49.0885C46.7202 51.5227 43.8546 53.4498 40.56 54.8698C37.2658 56.2898 33.7458 56.9998 30 56.9998Z" fill="#4000FF"/>
</g>
</svg>
